<svg width="600" height="400" viewBox="0 0 600 400" fill="none" xmlns="http://www.w3.org/2000/svg">
  <rect width="600" height="400" fill="#F0FDF4"/>
  <circle cx="300" cy="200" r="120" fill="#DCFCE7"/>
  <path d="M250 200a50 50 0 0 1 100 0 50 50 0 0 1-100 0" fill="#22C55E"/>
  <path d="M180 140a30 30 0 0 1 60 0 30 30 0 0 1-60 0" fill="#22C55E" opacity="0.7"/>
  <path d="M360 140a30 30 0 0 1 60 0 30 30 0 0 1-60 0" fill="#22C55E" opacity="0.7"/>
  <path d="M240 260l40 40 60-80" stroke="#16A34A" stroke-width="8" stroke-linecap="round" stroke-linejoin="round"/>
  <circle cx="200" cy="120" r="20" fill="#DCFCE7" stroke="#22C55E" stroke-width="2"/>
  <circle cx="400" cy="120" r="20" fill="#DCFCE7" stroke="#22C55E" stroke-width="2"/>
  <path d="M120 300h360" stroke="#BBF7D0" stroke-width="12" stroke-linecap="round"/>
  <path d="M160 340h280" stroke="#BBF7D0" stroke-width="8" stroke-linecap="round"/>
</svg>